<svg xmlns="http://www.w3.org/2000/svg" width="22" height="24.036" viewBox="0 0 22 24.036"><path d="M296.1,74.264l-.69-9.528a2.834,2.834,0,0,0-2.816-2.62h-2.214v-1.3a5.267,5.267,0,0,0-10.535,0v1.3h-2.214a2.834,2.834,0,0,0-2.816,2.62l-.689,9.528a4.963,4.963,0,0,0,4.95,5.321h12.075a4.963,4.963,0,0,0,4.95-5.321ZM281.345,60.816a3.771,3.771,0,0,1,7.541,0v1.3h-7.541Zm12.346,16.167a3.431,3.431,0,0,1-2.538,1.105H279.078a3.466,3.466,0,0,1-3.457-3.716l.69-9.528a1.331,1.331,0,0,1,1.323-1.231h2.214V68.53a.748.748,0,0,0,1.5,0V63.613h7.541V68.53a.748.748,0,0,0,1.5,0V63.613H292.6a1.331,1.331,0,0,1,1.323,1.231l.69,9.528A3.432,3.432,0,0,1,293.691,76.984Z" transform="translate(-274.115 -55.549)"/></svg>