<svg xmlns="http://www.w3.org/2000/svg" width="41.55" height="12" viewBox="0 0 41.55 12"><g transform="translate(-899.751 -998.126)" opacity="0.5"><path d="M1809.289,1308.549h0v-.466h0Z" transform="translate(-882.544 -300.758)" fill="#fff"/><ellipse cx="1.247" cy="1.264" rx="1.247" ry="1.264" transform="translate(929.16 998.126)" fill="#fff"/><path d="M903.306,1001.819a1.628,1.628,0,0,1,1.626-1.626v-1.921a3.552,3.552,0,0,0-3.547,3.548v.539h-1.633v1.753h1.633v6.052h1.921v-6.052h1.8v-1.753h-1.8Z" transform="translate(0 -0.141)" fill="#fff"/><path d="M1913.189,1116.445l-.995.987a2.609,2.609,0,0,1-1.881.874,2.529,2.529,0,0,1,0-5.056,2.391,2.391,0,0,1,1.9.854l1.211-1.211a4.093,4.093,0,0,0-3.11-1.431,4.31,4.31,0,0,0-4.3,4.316c0,.145.007.476.021.617l-1.444,1.443a.1.1,0,0,1-.173-.071v-6.2h-1.786v7.051a1.467,1.467,0,0,0,.877,1.354,1.441,1.441,0,0,0,1.59-.307l1.582-1.582a4.3,4.3,0,0,0,3.636,2.006,4.348,4.348,0,0,0,3.125-1.448l.976-.97Z" transform="translate(-973.113 -109.972)" fill="#fff"/><path d="M1115.98,1005.018h-1.786v2.161l-1.391,1.44a4.231,4.231,0,0,0-4.145-3.706,3.83,3.83,0,0,0-2.4.879v-4.143h-1.784v5.649l-1.36,1.351a4.2,4.2,0,1,0-4.149,4.895,3.806,3.806,0,0,0,2.4-.855v.75h1.785v-2.358l1.341-1.37a4.359,4.359,0,0,0,4.169,3.832,4.171,4.171,0,0,0,3.115-1.433l2.421-2.5v3.832h1.786v-2.231h0v-.466h0v-2.278c0-.031,0-.062,0-.093a1.69,1.69,0,0,1,1.689-1.637h0v-1.75a3.108,3.108,0,0,0-1.694.529Zm-17.019,6.739a2.532,2.532,0,1,1,2.385-2.528A2.436,2.436,0,0,1,1098.961,1011.758Zm11.464-.777-.009.009h0a2.41,2.41,0,0,1-1.76.768,2.532,2.532,0,1,1,2.385-2.528A2.509,2.509,0,0,1,1110.425,1010.98Z" transform="translate(-189.235 -3.419)" fill="#fff"/></g></svg>