<svg xmlns="http://www.w3.org/2000/svg" xmlns:xlink="http://www.w3.org/1999/xlink" width="44" height="40" viewBox="0 0 44 40"><defs><filter id="a" x="0" y="0" width="44" height="40" filterUnits="userSpaceOnUse"><feOffset dy="3" input="SourceAlpha"/><feGaussianBlur stdDeviation="3" result="b"/><feFlood flood-opacity="0.161"/><feComposite operator="in" in2="b"/><feComposite in="SourceGraphic"/></filter></defs><g transform="matrix(1, 0, 0, 1, 0, 0)" filter="url(#a)"><path d="M26,39.81a6.941,6.941,0,0,0-7.021-6.858A7.045,7.045,0,0,0,13,36.229a7.046,7.046,0,0,0-5.98-3.277A6.94,6.94,0,0,0,0,39.81a6.768,6.768,0,0,0,2.41,5.164l9.949,9.719a.921.921,0,0,0,1.281,0l9.949-9.719A6.768,6.768,0,0,0,26,39.81Z" transform="translate(9 -26.95)" fill="#cc2d36"/></g></svg>