<svg xmlns="http://www.w3.org/2000/svg" width="179.804" height="56" viewBox="0 0 179.804 56"><g transform="translate(-389 -1336)"><text transform="translate(518.001 1380)" fill="#707070" font-size="12" font-family="Karla-Regular, Karla" letter-spacing="-0.02em"><tspan x="-55.98" y="0">12 Reviews</tspan></text><g transform="translate(462 1347.957)"><path d="M10.427.759,12.96,6.653l6.484.548a.5.5,0,0,1,.291.88L14.817,12.27,16.291,18.5a.509.509,0,0,1-.761.544l-5.573-3.3-5.573,3.3a.509.509,0,0,1-.761-.544L5.1,12.27.177,8.08A.5.5,0,0,1,.468,7.2l6.484-.548L9.485.759a.514.514,0,0,1,.941,0Z" transform="translate(0 -0.452)" fill="#cc2d36"/></g><g transform="translate(483.723 1347.957)"><path d="M10.427.759,12.96,6.653l6.484.548a.5.5,0,0,1,.291.88L14.817,12.27,16.291,18.5a.509.509,0,0,1-.761.544l-5.573-3.3-5.573,3.3a.509.509,0,0,1-.761-.544L5.1,12.27.177,8.08A.5.5,0,0,1,.468,7.2l6.484-.548L9.485.759a.514.514,0,0,1,.941,0Z" transform="translate(0 -0.452)" fill="#cc2d36"/></g><g transform="translate(505.446 1347.957)"><path d="M10.427.759,12.96,6.653l6.484.548a.5.5,0,0,1,.291.88L14.817,12.27,16.291,18.5a.509.509,0,0,1-.761.544l-5.573-3.3-5.573,3.3a.509.509,0,0,1-.761-.544L5.1,12.27.177,8.08A.5.5,0,0,1,.468,7.2l6.484-.548L9.485.759a.514.514,0,0,1,.941,0Z" transform="translate(0 -0.452)" fill="#cc2d36"/></g><g transform="translate(527.168 1347.957)"><path d="M10.427.759,12.96,6.653l6.484.548a.5.5,0,0,1,.291.88L14.817,12.27,16.291,18.5a.509.509,0,0,1-.761.544l-5.573-3.3-5.573,3.3a.509.509,0,0,1-.761-.544L5.1,12.27.177,8.08A.5.5,0,0,1,.468,7.2l6.484-.548L9.485.759a.514.514,0,0,1,.941,0Z" transform="translate(0 -0.452)" fill="#cc2d36"/></g><g transform="translate(548.891 1347.957)"><path d="M10.427.759,12.96,6.653l6.484.548a.5.5,0,0,1,.291.88L14.817,12.27,16.291,18.5a.509.509,0,0,1-.761.544l-5.573-3.3-5.573,3.3a.509.509,0,0,1-.761-.544L5.1,12.27.177,8.08A.5.5,0,0,1,.468,7.2l6.484-.548L9.485.759a.514.514,0,0,1,.941,0Z" transform="translate(0 -0.452)" fill="#cc2d36"/></g><text transform="translate(389 1380)" fill="#cc2d36" font-size="48" font-family="Karla-Bold, Karla" font-weight="700" letter-spacing="-0.05em"><tspan x="0" y="0">4.2</tspan></text></g></svg>