<svg xmlns="http://www.w3.org/2000/svg" width="117" height="82" viewBox="0 0 117 82"><g transform="translate(-616 -1348)"><rect width="57" height="7" transform="translate(662 1386)" fill="#dcdcdc"/><rect width="63" height="7" transform="translate(656 1403)" fill="#dcdcdc"/><text transform="translate(616 1359)" font-size="12" font-family="Karla-Bold, Karla" font-weight="700" letter-spacing="-0.02em"><tspan x="0" y="0">5</tspan></text><text transform="translate(616 1376)" font-size="12" font-family="Karla-Bold, Karla" font-weight="700" letter-spacing="-0.02em"><tspan x="0" y="0">4</tspan></text><text transform="translate(616 1393)" font-size="12" font-family="Karla-Bold, Karla" font-weight="700" letter-spacing="-0.02em"><tspan x="0" y="0">3</tspan></text><text transform="translate(616 1410)" font-size="12" font-family="Karla-Bold, Karla" font-weight="700" letter-spacing="-0.02em"><tspan x="0" y="0">2</tspan></text><text transform="translate(616 1427)" font-size="12" font-family="Karla-Bold, Karla" font-weight="700" letter-spacing="-0.02em"><tspan x="0" y="0">1</tspan></text><text transform="translate(729 1359)" font-size="12" font-family="Karla-Bold, Karla" font-weight="700" letter-spacing="-0.02em"><tspan x="-3.57" y="0">4</tspan></text><text transform="translate(729 1376)" font-size="12" font-family="Karla-Bold, Karla" font-weight="700" letter-spacing="-0.02em"><tspan x="-3.57" y="0">4</tspan></text><text transform="translate(729 1393)" font-size="12" font-family="Karla-Bold, Karla" font-weight="700" letter-spacing="-0.02em"><tspan x="-3.732" y="0">3</tspan></text><text transform="translate(729 1410)" font-size="12" font-family="Karla-Bold, Karla" font-weight="700" letter-spacing="-0.02em"><tspan x="-2.142" y="0">1</tspan></text><text transform="translate(729 1427)" font-size="12" font-family="Karla-Bold, Karla" font-weight="700" letter-spacing="-0.02em"><tspan x="-3.798" y="0">0</tspan></text><g transform="translate(627 1349)"><path d="M6.283.637,7.81,4.189l3.908.33a.3.3,0,0,1,.176.53L8.929,7.574l.888,3.756a.307.307,0,0,1-.459.328L6,9.666,2.642,11.657a.307.307,0,0,1-.459-.328l.888-3.756L.106,5.049a.3.3,0,0,1,.176-.53l3.908-.33L5.716.637a.31.31,0,0,1,.567,0Z" transform="translate(0 -0.452)" fill="#cc2d36"/></g><g transform="translate(627 1366)"><path d="M6.283.637,7.81,4.189l3.908.33a.3.3,0,0,1,.176.53L8.929,7.574l.888,3.756a.307.307,0,0,1-.459.328L6,9.666,2.642,11.657a.307.307,0,0,1-.459-.328l.888-3.756L.106,5.049a.3.3,0,0,1,.176-.53l3.908-.33L5.716.637a.31.31,0,0,1,.567,0Z" transform="translate(0 -0.452)" fill="#cc2d36"/></g><g transform="translate(627 1383)"><path d="M6.283.637,7.81,4.189l3.908.33a.3.3,0,0,1,.176.53L8.929,7.574l.888,3.756a.307.307,0,0,1-.459.328L6,9.666,2.642,11.657a.307.307,0,0,1-.459-.328l.888-3.756L.106,5.049a.3.3,0,0,1,.176-.53l3.908-.33L5.716.637a.31.31,0,0,1,.567,0Z" transform="translate(0 -0.452)" fill="#cc2d36"/></g><g transform="translate(627 1400)"><path d="M6.283.637,7.81,4.189l3.908.33a.3.3,0,0,1,.176.53L8.929,7.574l.888,3.756a.307.307,0,0,1-.459.328L6,9.666,2.642,11.657a.307.307,0,0,1-.459-.328l.888-3.756L.106,5.049a.3.3,0,0,1,.176-.53l3.908-.33L5.716.637a.31.31,0,0,1,.567,0Z" transform="translate(0 -0.452)" fill="#cc2d36"/></g><g transform="translate(627 1417)"><path d="M6.283.637,7.81,4.189l3.908.33a.3.3,0,0,1,.176.53L8.929,7.574l.888,3.756a.307.307,0,0,1-.459.328L6,9.666,2.642,11.657a.307.307,0,0,1-.459-.328l.888-3.756L.106,5.049a.3.3,0,0,1,.176-.53l3.908-.33L5.716.637a.31.31,0,0,1,.567,0Z" transform="translate(0 -0.452)" fill="#cc2d36"/></g><rect width="76" height="7" transform="translate(643 1352)" fill="#cc2d36"/><rect width="76" height="7" transform="translate(643 1369)" fill="#cc2d36"/><rect width="57" height="7" transform="translate(643 1386)" fill="#cc2d36"/><rect width="18" height="7" transform="translate(643 1403)" fill="#cc2d36"/><rect width="76" height="7" transform="translate(643 1420)" fill="#dcdcdc"/></g></svg>