<svg xmlns="http://www.w3.org/2000/svg" width="88" height="15" viewBox="0 0 88 15"><g transform="translate(-272 -3402)"><g transform="translate(272 3401.548)"><path d="M8.378.7l2.035,4.736,5.21.44a.4.4,0,0,1,.234.707L11.906,9.948l1.184,5.008a.409.409,0,0,1-.612.437L8,12.738,3.523,15.392a.409.409,0,0,1-.612-.437L4.095,9.948.142,6.581a.4.4,0,0,1,.234-.707l5.21-.44L7.622.7a.413.413,0,0,1,.756,0Z" transform="translate(0)" fill="#cc2d36"/></g><g transform="translate(290 3401.548)"><path d="M8.378.7l2.035,4.736,5.21.44a.4.4,0,0,1,.234.707L11.906,9.948l1.184,5.008a.409.409,0,0,1-.612.437L8,12.738,3.523,15.392a.409.409,0,0,1-.612-.437L4.095,9.948.142,6.581a.4.4,0,0,1,.234-.707l5.21-.44L7.622.7a.413.413,0,0,1,.756,0Z" transform="translate(0)" fill="#cc2d36"/></g><g transform="translate(308 3401.548)"><path d="M8.378.7l2.035,4.736,5.21.44a.4.4,0,0,1,.234.707L11.906,9.948l1.184,5.008a.409.409,0,0,1-.612.437L8,12.738,3.523,15.392a.409.409,0,0,1-.612-.437L4.095,9.948.142,6.581a.4.4,0,0,1,.234-.707l5.21-.44L7.622.7a.413.413,0,0,1,.756,0Z" transform="translate(0)" fill="#cc2d36"/></g><g transform="translate(326 3401.548)"><path d="M8.378.7l2.035,4.736,5.21.44a.4.4,0,0,1,.234.707L11.906,9.948l1.184,5.008a.409.409,0,0,1-.612.437L8,12.738,3.523,15.392a.409.409,0,0,1-.612-.437L4.095,9.948.142,6.581a.4.4,0,0,1,.234-.707l5.21-.44L7.622.7a.413.413,0,0,1,.756,0Z" transform="translate(0)" fill="#cc2d36"/></g><g transform="translate(344 3401.548)"><path d="M8.378.7l2.035,4.736,5.21.44a.4.4,0,0,1,.234.707L11.906,9.948l1.184,5.008a.409.409,0,0,1-.612.437L8,12.738,3.523,15.392a.409.409,0,0,1-.612-.437L4.095,9.948.142,6.581a.4.4,0,0,1,.234-.707l5.21-.44L7.622.7a.413.413,0,0,1,.756,0Z" transform="translate(0)" fill="#cc2d36"/></g></g></svg>